<svg xmlns="http://www.w3.org/2000/svg" width="100" height="100" viewBox="0 0 100 100">
  <defs>
    <g id="xmr" transform="translate(-371.96,-371.75)">
      <path d="M2250,371.75c-1036.89,0-1879.12,842.06-1877.8,1878,0.26,207.26,33.31,406.63,95.34,593.12h561.88V1263L2250,2483.57,3470.52,1263v1579.9h562c62.12-186.48,95-385.85,95.37-593.12C4129.66,1212.76,3287,372,2250,372Z" fill="#E8E8E8"/>
      <path d="M1969.3,2764.17l-532.67-532.7v994.14H1029.38l-384.29.07c329.63,540.8,925.35,902.56,1604.91,902.56S3525.31,3766.4,3855,3225.6H3063.25V2231.47l-532.7,532.7-280.61,280.61-280.62-280.61h0Z" fill="#E8E8E8"/>
    </g>
    <g id="eth">
      <polygon points="392.07,0 383.5,29.11 383.5,873.74 392.07,882.29 784.13,650.54" fill="#E8E8E8"/>
      <polygon points="392.07,0 0,650.54 392.07,882.29 392.07,472.33" fill="#E8E8E8"/>
      <polygon points="392.07,956.52 387.24,962.41 387.24,1263.28 392.07,1277.38 784.37,724.89" fill="#E8E8E8"/>
      <polygon points="392.07,1277.38 392.07,956.52 0,724.89" fill="#E8E8E8"/>
      <polygon points="392.07,882.29 784.13,650.54 392.07,472.33" fill="#E8E8E8"/>
      <polygon points="0,650.54 392.07,882.29 392.07,472.33" fill="#E8E8E8"/>
    </g>
  </defs>
  <use href="#xmr" transform="translate(25,25) rotate(45) scale(0.00533) translate(-1878,-1878)"/>
  <use href="#eth" transform="translate(75,75) rotate(45) scale(0.01566) translate(-392,-639)"/>
</svg>
